<svg width="19" height="18" viewBox="0 0 19 18" fill="none" xmlns="http://www.w3.org/2000/svg">
<path d="M14.4211 13.4444C13.4328 13.4444 12.6316 14.2404 12.6316 15.2222C12.6316 16.2041 13.4328 17 14.4211 17C15.4094 17 16.2105 16.2041 16.2105 15.2222C16.2105 14.2404 15.4094 13.4444 14.4211 13.4444ZM14.4211 13.4444H5.80232C5.35705 13.4444 4.97954 13.1192 4.91657 12.6813L4.64286 10.7778M1 1H3.23684L3.49248 2.77778M3.49248 2.77778H3.68421H18L15.3158 10.7778H5.02632H4.64286M3.49248 2.77778L4.64286 10.7778M9.05263 15.2222C9.05263 16.2041 8.25146 17 7.26316 17C6.27486 17 5.47368 16.2041 5.47368 15.2222C5.47368 14.2404 6.27486 13.4444 7.26316 13.4444C8.25146 13.4444 9.05263 14.2404 9.05263 15.2222Z" stroke="#80828B" stroke-width="1.5" stroke-linecap="round" stroke-linejoin="round"/>
</svg>
